<?xml version="1.0" standalone="no"?>
<!DOCTYPE svg PUBLIC "-//W3C//DTD SVG 20010904//EN"
 "http://www.w3.org/TR/2001/REC-SVG-20010904/DTD/svg10.dtd">
<svg version="1.0" xmlns="http://www.w3.org/2000/svg"
 width="266.000000pt" height="266.000000pt" viewBox="0 0 266.000000 266.000000"
 preserveAspectRatio="xMidYMid meet">
<metadata>
Created by potrace 1.14, written by Peter Selinger 2001-2017
</metadata>
<g transform="translate(0.000000,266.000000) scale(0.100000,-0.100000)"
fill="#000000" stroke="none">
<path d="M1120 2600 c-309 -62 -538 -188 -732 -403 -168 -186 -258 -356 -316
-602 -20 -87 -22 -417 -3 -510 41 -199 150 -431 265 -564 53 -63 179 -181 242
-229 126 -96 354 -195 509 -221 132 -22 276 -33 337 -27 84 10 260 45 273 55
5 5 27 11 47 15 56 10 283 129 363 191 150 115 314 317 390 480 65 140 112
325 122 486 16 239 -72 562 -204 753 -135 194 -274 326 -450 426 -248 143
-585 202 -843 150z m430 -136 c250 -47 515 -200 662 -384 97 -120 199 -300
214 -380 6 -27 4 -30 -20 -30 -17 0 -26 5 -26 16 0 27 -83 194 -133 269 -61
91 -199 231 -285 288 -128 85 -265 144 -420 179 -35 8 -119 12 -222 12 -145
-1 -177 -5 -263 -28 -346 -93 -640 -355 -760 -678 -30 -79 -62 -206 -55 -213
3 -3 34 12 69 34 114 71 144 87 255 134 268 112 494 155 764 144 167 -6 290
-36 434 -105 100 -48 103 -50 124 -100 54 -124 40 -184 -63 -292 -80 -83 -92
-102 -109 -169 l-11 -46 -80 -24 c-156 -46 -464 -27 -611 39 -60 26 -68 26
-154 -10 -81 -33 -179 -92 -255 -153 -73 -59 -195 -188 -202 -215 -7 -31 31
-84 142 -197 157 -161 343 -263 563 -312 97 -21 329 -24 427 -4 223 44 437
160 592 322 87 90 135 157 192 268 88 173 123 329 119 528 -1 96 1 136 10 145
20 20 30 -6 38 -101 14 -173 -37 -414 -126 -591 -209 -417 -669 -676 -1121
-630 -153 15 -226 33 -357 91 -319 138 -535 376 -652 715 -72 208 -64 527 20
751 139 372 478 657 866 727 109 20 332 20 434 0z m-80 -139 c57 -54 46 -153
-22 -195 -79 -50 -188 9 -188 102 0 47 25 94 62 115 38 22 114 11 148 -22z
m-392 -35 c35 -21 62 -72 62 -115 0 -46 -28 -85 -77 -107 -43 -19 -47 -19 -89
-3 -57 22 -89 70 -81 126 7 52 31 87 70 104 45 20 77 18 115 -5z m712 -39 c33
-24 38 -57 10 -66 -16 -5 -26 -1 -36 14 -16 22 -44 29 -44 10 0 -6 11 -25 24
-42 39 -51 42 -82 12 -111 -15 -16 -36 -26 -55 -26 -35 0 -91 43 -91 71 0 29
28 35 54 10 23 -22 46 -28 46 -11 0 5 -11 26 -25 46 -29 43 -32 85 -7 106 35
31 66 31 112 -1z m-1062 -154 c2 -19 -1 -27 -12 -27 -9 0 -25 -9 -36 -20 -56
-56 23 -146 82 -93 25 22 23 35 -5 28 -15 -4 -28 -1 -37 10 -11 13 -9 20 15
45 16 17 34 30 41 30 6 0 28 -18 48 -40 35 -38 36 -42 22 -68 -24 -47 -62 -74
-109 -79 -81 -9 -137 42 -137 124 0 45 20 77 64 104 40 25 60 21 64 -14z
m1330 -37 c28 -27 52 -54 52 -60 0 -5 -9 -14 -21 -21 -18 -9 -26 -6 -55 22
-26 25 -37 30 -46 21 -9 -9 -5 -16 15 -32 31 -25 35 -55 10 -69 -14 -8 -24 -4
-46 17 -21 20 -30 23 -39 14 -9 -9 -6 -18 15 -40 30 -31 35 -60 12 -68 -18 -7
-112 73 -114 96 -1 13 146 170 159 170 3 0 29 -23 58 -50z m432 -434 c0 -19
-89 -106 -182 -176 -84 -64 -191 -119 -284 -146 l-60 -18 70 -24 c133 -45 263
-118 243 -138 -3 -3 -39 2 -79 11 -106 24 -317 31 -396 12 -35 -8 -65 -11 -68
-5 -15 24 14 75 91 159 108 117 125 159 101 256 -9 36 -15 68 -12 70 3 3 29
-3 58 -13 77 -27 325 -25 418 4 80 24 100 26 100 8z m-1463 -708 c14 -17 14
-79 1 -95 -6 -7 -26 -13 -44 -13 l-34 0 0 60 0 60 34 0 c18 0 38 -6 43 -12z
m118 -48 l0 -61 -40 3 c-40 3 -40 3 -43 47 -5 62 1 71 45 71 l38 0 0 -60z
m112 0 l1 -60 -39 0 c-24 0 -39 5 -40 13 0 6 -2 28 -3 47 -3 52 2 60 43 60
l37 0 1 -60z m111 48 c6 -7 10 -34 10 -60 -1 -52 -19 -64 -44 -30 -13 16 -13
16 -14 -1 0 -12 -6 -17 -17 -15 -13 2 -19 15 -21 47 -2 24 -1 50 2 57 7 18 70
19 84 2z m190 -10 c3 -14 -3 -18 -27 -18 -24 0 -31 -4 -31 -20 0 -15 7 -20 28
-20 35 0 45 -9 31 -27 -15 -18 -64 -17 -83 3 -21 20 -20 63 1 86 22 24 76 21
81 -4z m136 0 c21 -30 20 -54 -4 -78 -24 -24 -72 -26 -90 -4 -20 23 -16 75 5
90 29 21 72 17 89 -8z m391 -54 c44 -21 70 -70 63 -122 -6 -44 -61 -122 -86
-122 -12 0 -34 17 -149 115 l-35 30 32 40 c31 40 88 74 123 75 11 0 34 -7 52
-16z m-325 -24 c0 -13 -7 -20 -20 -20 -13 0 -20 7 -20 20 0 13 7 20 20 20 13
0 20 -7 20 -20z m-1009 -31 c8 -17 8 -24 -3 -33 -119 -106 -160 -137 -173
-132 -35 13 -26 36 36 93 35 32 70 66 79 75 21 23 47 22 61 -3z m186 -154 c19
-19 33 -40 31 -47 -8 -22 -49 -21 -65 1 -14 20 -43 29 -43 14 0 -5 9 -23 20
-41 24 -39 26 -95 4 -116 -26 -27 -86 -20 -117 12 -31 32 -34 54 -12 72 14 11
20 8 45 -21 23 -28 30 -31 35 -18 3 9 -3 31 -14 50 -26 43 -26 69 0 103 30 38
72 35 116 -9z m881 3 c39 -66 92 -168 92 -178 0 -16 -33 -12 -105 15 -37 14
-70 24 -72 21 -3 -3 7 -26 21 -52 28 -49 23 -74 -14 -74 -20 0 -130 203 -117
216 6 6 98 -18 165 -44 9 -3 4 15 -13 47 -21 42 -24 56 -14 67 18 22 36 17 57
-18z m-673 -88 c3 -5 -3 -46 -14 -92 -11 -45 -18 -84 -16 -86 2 -2 19 -7 37
-11 34 -7 49 -34 30 -53 -10 -10 -119 8 -135 23 -5 4 1 47 12 95 12 49 24 99
26 112 4 15 13 22 30 22 13 0 27 -4 30 -10z m310 -29 c3 -10 30 -56 60 -102
30 -46 55 -89 55 -95 0 -21 -41 -23 -61 -3 -29 29 -94 22 -104 -12 -7 -21 -43
-35 -57 -21 -6 6 -1 34 12 78 21 66 26 83 49 147 12 31 37 36 46 8z"/>
<path d="M1493 1678 c-28 -14 -29 -24 -4 -38 11 -5 23 -19 26 -31 5 -16 14
-20 43 -17 48 4 53 29 14 68 -33 32 -44 35 -79 18z"/>
<path d="M1342 2284 c-42 -29 -24 -97 30 -109 21 -5 33 -1 52 19 31 31 32 45
5 80 -23 29 -54 33 -87 10z"/>
<path d="M975 2225 c-30 -29 -32 -58 -5 -85 37 -37 110 -14 110 36 0 28 -41
74 -65 74 -9 0 -27 -11 -40 -25z"/>
<path d="M1625 880 c-4 -7 -3 -16 3 -22 14 -14 45 -2 40 15 -6 16 -34 21 -43
7z"/>
<path d="M1981 789 l-22 -21 23 -25 c13 -14 36 -32 52 -40 27 -14 31 -14 43 3
19 27 16 61 -9 84 -28 26 -58 26 -87 -1z"/>
<path d="M1436 423 c-11 -11 -6 -23 9 -23 8 0 15 4 15 9 0 13 -16 22 -24 14z"/>
</g>
</svg>
